<?xml version="1.0" encoding="iso-8859-1"?>
<!-- Uploaded to: SVG Repo, www.svgrepo.com, Generator: SVG Repo Mixer Tools -->
<svg height="800px" width="800px" version="1.1" id="Layer_1" xmlns="http://www.w3.org/2000/svg" xmlns:xlink="http://www.w3.org/1999/xlink" 
	 viewBox="0 0 511.999 511.999" xml:space="preserve">
<path style="fill:#DBE9FD;" d="M256,29.174L55.652,229.522v22.261v232.391c0,9.223,7.473,16.696,16.696,16.696h367.304
	c9.223,0,16.696-7.473,16.696-16.696V229.522L256,29.174z"/>
<path style="fill:#C5DCFD;" d="M256,29.174v471.696h183.652c9.223,0,16.696-7.473,16.696-16.696V229.522L256,29.174z"/>
<path style="fill:#875334;" d="M456.348,233.739L356.174,133.565V94.609c0-9.22,7.475-16.696,16.696-16.696h66.783
	c9.22,0,16.696,7.475,16.696,16.696V233.739z"/>
<path style="fill:#FF6243;" d="M495.305,283.826c-4.272,0-8.544-1.631-11.804-4.892L256,51.435L28.5,278.934
	c-6.521,6.521-17.087,6.521-23.609,0c-6.521-6.516-6.521-17.092,0-23.609L244.195,16.021c6.521-6.521,17.087-6.521,23.609,0
	l239.304,239.304c6.521,6.516,6.521,17.092,0,23.609C503.848,282.195,499.576,283.826,495.305,283.826z"/>
<path style="fill:#FF3501;" d="M267.804,16.022c-3.26-3.261-7.532-4.892-11.804-4.892v40.304l227.501,227.501
	c3.261,3.261,7.533,4.892,11.804,4.892s8.544-1.631,11.804-4.892c6.521-6.516,6.521-17.092,0-23.609L267.804,16.022z"/>
<path style="fill:#95673F;" d="M256,244.869c-2.337,0-4.563,0.111-6.901,0.223c-53.092,3.562-93.273,50.198-93.273,103.513v152.264
	h200.348V345.043C356.174,289.725,311.207,244.869,256,244.869z"/>
<path style="fill:#875334;" d="M356.174,345.043v155.826H256v-256C311.207,244.869,356.174,289.725,356.174,345.043z"/>
<circle style="fill:#6BA9E2;" cx="256" cy="372.869" r="16.696"/>
<path style="fill:#609DD5;" d="M272.696,372.869c0-9.22-7.475-16.696-16.696-16.696v33.391
	C265.221,389.565,272.696,382.09,272.696,372.869z"/>
</svg>